<svg xmlns="http://www.w3.org/2000/svg" xmlns:xlink="http://www.w3.org/1999/xlink" version="1.1" x="0px" y="0px" viewBox="0 0 100 125" enable-background="new 0 0 100 100" xml:space="preserve"><path d="M80.4729004,88.3718338c-4.1503906,0.2324219-12.3642578-1.7021484-15.7041016-2.5439453  c-0.6455078-0.1611328-1.1103516-0.7421875-1.1289063-1.4121094l-0.3201294-11.6801758  c3.6123657-4.2453613,6.1870728-8.991272,7.0465698-12.4420166c2.0046997-0.1052856,4.8829346-2.3403931,5.5723877-5.0428467  c0.6962891-2.7265625,0.4121094-4.9765625-0.7783203-6.1738281c-0.451416-0.4544678-1.2033691-0.9111938-2.3548584-0.8821411  l0.49646-1.6608276c1.7148438-5.7255859,3.0712891-14.4956055,1.2548828-20.3706036  c-2.7756958-8.9824829-8.6488037-12.8237305-14.4559326-14.2875366c-2-0.59198-4.2155762-1.0031738-6.6925049-1.1885376  c-7.3823242-0.5541992-16.5,1.9438477-21.675293,5.9360352c-1.2491455,0.963623-2.3477783,2.2850952-3.1916504,3.7233887  c-2.1497192,3.0853271-3.4481201,7.0747681-3.8352051,11.9665508c-0.4267578,5.390625,0.1655273,9.5698242,2.0932617,14.8388672  l0.222168,1.0361938c-1.0567017,0.0177612-1.7538452,0.4573975-2.1821289,0.8886108  c-1.1904297,1.1972656-1.4746094,3.4472656-0.7788086,6.1738281c0.6868896,2.6923828,3.5454102,4.9197998,5.5491943,5.039856  c0.8601685,3.4575806,3.4439087,8.2180786,7.0690308,12.4715576l-0.319397,11.6536255  c-0.0180664,0.6699219-0.4819336,1.25-1.128418,1.4121094c-3.3398438,0.8408203-11.5556641,2.7724609-15.7041016,2.5439453  l-0.0546875,0.9980469c0.2402344,0.0136719,0.4926758,0.0195313,0.7568359,0.0195313  c4.4458008,0,12.0512695-1.7871094,15.2456055-2.5908203c1.0791016-0.2714844,1.8540039-1.2392578,1.8847656-2.3554688  l0.2901001-10.5853882c1.4828491,1.619812,3.1108398,3.1384277,4.8471069,4.4437866  c0.9589844,0.7216797,2.0834961,1.1025391,3.2519531,1.1025391h8.4790039c1.1689453,0,2.2929688-0.3808594,3.2519531-1.1025391  c1.7451782-1.3120117,3.3804932-2.8395386,4.8693848-4.4685059l0.2907715,10.611084  c0.0322266,1.1152344,0.8066406,2.0839844,1.8847656,2.3544922c3.1953125,0.8037109,10.8017578,2.5908203,15.2460938,2.5908203  c0.2646484,0,0.5166016-0.0058594,0.7568359-0.0195313L80.4729004,88.3718338z M43.0979004,77.5026932  c-1.9658813-1.4780884-3.7870483-3.2340088-5.4083862-5.0968628c-0.3319702-0.3814087-0.6547852-0.7667847-0.9690552-1.1559448  c-3.2844849-4.0669556-5.5786133-8.4779053-6.2446289-11.6124268c-0.59021-2.777832-1.0952759-5.3158569-1.53302-7.8354492  c0.2097168-1.8463745,1.0950317-8.9542236,2.8764648-14.9938354c0.7206421,0.324707,3.6734009,0.8652954,12.9351807-4.2418823  c0.0684814,0.0072632,0.1387939,0.0158691,0.2071533,0.0230103c-1.3059692,1.5736084-3.1486816,3.4386597-4.5380249,3.6321411  c-0.199707,0.027832-0.3413086,0.2084961-0.3212891,0.4091797s0.2084961,0.3549805,0.3959961,0.3369141  c0.4852905-0.0297241,9.541748-0.630127,14.5637207-3.6696777c0.0543213,0.0020142,0.1077881,0.0037842,0.1618652,0.0057983  c-1.1750488,1.5895386-2.6935425,3.1853638-4.1879883,3.4202271c-0.1992188,0.03125-0.3378906,0.2143555-0.3144531,0.4145508  c0.0224609,0.1899414,0.184082,0.3310547,0.3720703,0.3310547c0.0097656,0,0.0200195-0.0004883,0.0297852-0.0009766  c1.515564-0.119751,12.8508301-1.1123657,16.6880493-4.2259521c0.0464478-0.0023193,0.0927734-0.0046997,0.1383667-0.007019  c4.1974487,9.9011841,3.1099854,17.2786865,3.0944824,17.3716431c-0.0230713,0.1461792,0.0245361,0.2843628,0.1121216,0.3914795  c-0.472229,2.8605347-1.0202637,5.651123-1.6550903,8.6387939c-0.6645508,3.1275635-2.9498901,7.526001-6.2229004,11.5854492  c-0.31427,0.3897705-0.6370239,0.7757568-0.9689941,1.1578369c-1.6269531,1.8722534-3.4562378,3.637207-5.4311523,5.1219482  c-0.7841797,0.5898438-1.7001953,0.9013672-2.6503906,0.9013672h-8.4790039  C44.798584,78.4040604,43.8820801,78.0925369,43.0979004,77.5026932z M25.029541,55.0026932  c-0.597168-2.3417969-0.4033203-4.2929688,0.519043-5.2207031c0.425293-0.428894,0.9923096-0.6240845,1.6884155-0.5900269  l0.6694946,3.1222534c0.0223389,0.1049805,0.0797119,0.1930542,0.1542969,0.2612915  c0.3839111,2.1580811,0.8218384,4.3499756,1.3167725,6.6976929C27.8666382,58.9997635,25.5945435,57.2185745,25.029541,55.0026932z   M74.9699707,55.0026932c-0.5693359,2.2288818-2.8590088,4.0214233-4.3723755,4.2786255  c0.7036743-3.3418579,1.3001099-6.4616699,1.8013306-9.7263794l0.0974731-0.3259888  c0.8156128-0.1011353,1.4782715,0.0722046,1.9550171,0.5530396C75.3742676,50.7097244,75.567627,52.6608963,74.9699707,55.0026932z   M59.1859131,57.8154373c4.9135742,1.5838623,10.0435181-2.0567627,10.1365967-7.6217041  c0.0281372-1.6780396-0.4467163-3.3156738-1.8723755-4.5524292c-0.9230347-0.8007813-2.0736694-1.2133789-3.2425537-1.3135986  c-1.2653198-0.1084595-3.2921753-0.2040405-5.2963257,0.0216675H41.0886841  c-2.0041504-0.225708-4.0310059-0.130127-5.2963257-0.0216675c-1.1688232,0.1002197-2.319519,0.5128174-3.2425537,1.3135986  c-1.4256592,1.2367554-1.9004517,2.8743896-1.8723755,4.5524292c0.0930786,5.5649414,5.2230225,9.2055664,10.1365967,7.6217041  c2.7619019-0.8903198,5.4554443-3.0063477,6.3921509-7.694397c0.0987549-0.4943237,0.1264648-0.9440918,0.1043701-1.3613892  c1.7286377-0.6115723,3.6504517-0.6116943,5.3788452-0.0003052c-0.0221558,0.4173584,0.0055542,0.8672485,0.1043701,1.3616943  C53.7304688,54.8090897,56.4240112,56.9251175,59.1859131,57.8154373z M53.0498047,47.294014  c-1.9666748-0.6594849-4.1329956-0.6594238-6.0996094,0.0001831c-0.3580933-0.7396851-0.9552612-1.3085938-1.6998291-1.7446289  h9.4992065C54.0050659,45.9855423,53.4078979,46.554451,53.0498047,47.294014z"/><text x="0" y="115" fill="#000000" font-size="5px" font-weight="bold" font-family="'Helvetica Neue', Helvetica, Arial-Unicode, Arial, Sans-serif">Created by Llisole</text><text x="0" y="120" fill="#000000" font-size="5px" font-weight="bold" font-family="'Helvetica Neue', Helvetica, Arial-Unicode, Arial, Sans-serif">from the Noun Project</text></svg>